<mxfile host="app.diagrams.net" agent="Mozilla/5.0 (X11; Linux x86_64) AppleWebKit/537.36 (KHTML, like Gecko) Chrome/127.0.0.0 Safari/537.36" modified="2024-09-23T11:14:45.763Z" version="24.6.5" etag="EMbB-sd_sAtFXnlAqaa8" type="device">
  <diagram name="PÃ¡gina-1" id="2Bun4hXmkwTdKliS5bkS">
    <mxGraphModel dx="2022" dy="1857" grid="1" gridSize="10" guides="1" tooltips="1" connect="1" arrows="1" fold="1" page="1" pageScale="1" pageWidth="827" pageHeight="1169" math="0" shadow="0">
      <root>
        <mxCell id="0" />
        <mxCell id="1" parent="0" />
        <mxCell id="KtmWubHa4JedQPkCyYTC-5" value="" style="shape=image;verticalLabelPosition=bottom;labelBackgroundColor=default;verticalAlign=top;aspect=fixed;imageAspect=0;image=data:image/png,iVBORw0KGgoAAAANSUhEUgAAAhgAAAH9CAYAAABY5QW8AAAAAXNSR0IArs4c6QAAAARnQU1BAACxjwv8YQUAAAAJcEhZcwAADsMAAA7DAcdvqGQAACX/SURBVHhe7d0NuF3TnfjxHzqkdKSmIm9SlOnQUGm0SKoktIQioSRegw5VQVsvFaWltA1q/k1LykxjqoMyyYQkikmoJmUkRYWSeE0fLzeEpIwYRjJj9J+1s+OtkZxz7zrn3nvO5/M8p/fsde5N7/PIufebvddea60/LxcAABmtXX4EAMhGYAAA2QkMACA7gQEAZCcwAIDsBAYAkJ3AAACyExgAQHYCAwDITmAAANkJDAAgO3uRQJN76qmn4te//nU8/PDDsXDhwnjuuedi4403jpdffjl69+4dPXv2jO222y7222+/6Nq1a/lVAKsnMKAJLVmyJC655JK4/vrri5A44ogjYr311ivCokePHtGtW7ciNF544YX405/+FIsXL45rr702+vXrFyNGjIgTTjih/JMAVk1gQBNJb/ezzjorLr/88jjppJNi0KBB0bdv3/LVNZs9e3bce++9MW7cuBgzZkycfPLJ5SsA72YOBjSJKVOmxAc/+MFYa6214pFHHokTTzyxqrhIBgwYEF/72tfi/vvvLx7bb7998WcBvJczGNAEzj///CIELrjgguJSSC7PPvtscXkl/fnDhw8vRwGcwYCGd/zxxxdzLn70ox9ljYskTQKdMWNGXHfddXHNNdeUowDOYEBDS/MsNthgg/jGN75RjtTOKaecErvuumuMGjWqHAGamTMY0KDOPffcWH/99esSF8nYsWPj5ptvjsmTJ5cjQDNzBgMaULr99F//9V+LW1Hrbc899ywiY6uttipHgGYkMKABrbPOOvHMM8/E2mvX/yTlQw89FGeeeWbMmTOnHAGakUsk0GBGjx5drHVRUVzcNy569er1Po8dY99jRsf4aXNjSfnplUirfm6xxRbFGRSgeTmDAQ3kxRdfjI9//OMxd+7ccmQNUmDsN2b5k+Fx4aTh8dZFjWWLYv6MmTFx2sSYs2D5cf8j45eXXxSD+6x4eU3SKqBDhw6NBQvSFwPNyBkMaCCXXnppcTdH9baKvgMHxsCVj8HDYuT5P46b7nkkfnXeoOg25+o4fN9zYtbS8tPXIJ0B2WOPPWLixInlCNBsBAY0kHRZYrfddiuPcugaOxx3efz4yG4Ri6+IcVNbyvE123nnneOGG24oj4BmIzCgQTz22GPx5ptv1uDuja7Rd0D/4tnMxYuKj5UYMmRITJ06tTwCmo3AgAZx2223xcEHH1we5bQ05pd3hAzqtknxsRJdunQplg9PW8EDzUdgQIN48MEH48Mf/nB5lE/LtHNjzBWLI/qfFacNrXCWZyndyfLEE0+UR0AzERjQINLGYz169CiPqrUkXlmypNizZMWjJebOmBLjjtkxdvry1bForwvj1l+eFDt0KT+9Qt26dYuFCxeWR0AzERjQINKtod27dy+PqvXTOHybbWKbtx47xZ6Hj4ox83eICyc9EHdcOTK27Vp+ahXS95O+L6D5CAxoED179mzDGYy0DsakmPTW45dx2YXHxtCYFWce1C92PeycmDK/wntU3yHttrruuuuWR0AzERjQIF544YU2XI54zzoYAwfHsJHnx+V3/iEemHRWbDXvihj1pcNj3H3VRUZLS0u88cYb5RHQTAQGNIi0uNXzzz9fHuWzycCT4uc/PzH6Lp4dY868IqppjBQ96fsCmo/AgAaRLkfUIjCSLjuMjGMHLH8yb3zMnr9irBKLFi0SGNCkBAY0iO233z5eeuml8ii/9TZM/7s4YllxWJFly5YVe6MAzUdgQIPYe++9a7eD6dxpccX09GR4VLpQ6CuvvBLTp0+PQYMGlSNAMxEY0CA233zz6Nq1azz88MPlSB5L5k+Ib3z53EhrefY/79gYUuHtqiku9t9///IIaDYCAxrIoYceGnfddVd5VI35MW/WrJj11mNaTBj/gxh92I6xza6nxMQF3WLQebfGpOO2LT9/zebMmRMHHnhgeQQ0m7X+vFz5HOjk0pyHdBbjySefLEfW4L5x0Wu/MeXBX+q25YAYPHh4DD9paAzcpPJlPOfPnx/HHXdcPProo+UI0GwEBjSY733ve8VkzzPOOKMcqb+jjz46Tj755Nh3333LEaDZCAxoQGkPkHSp40Mf+lA5Uj/33HNP/OQnP4nf/OY35QjQjMzBgAb0b//2b8VZhPZw1FFHxeTJk8sjoFkJDGhA6dbQESNGxHe+851ypD7SpM5f/epXxTwQoLkJDGhQX/va14pFrkaPHl2O1NYxxxwTZ555Znzuc58rR4BmJjCgQf3xj3+Mn/3sZ/HRj3605pFx0EEHxbHHHhuHH354OQI0O4EBDSjFxV577VXcLvr9738/dtlllxg5cmQsWLCg/Iw87r///vjEJz4RF1xwQREZaXOz9phYCnQ87iKBBvPOuHindFdJWojrC1/4Qpx99tnRpUvl61q8V1pnY8yYMfH666/HpEmTYqONNipfiXjttdeie/fu8eqrr5YjQDMSGNBA3i8u3mncuHHxzW9+szijkSaDVrpXyNKlS4vlv//whz/EbbfdFhdffHEccMAB5avvJjIAgQENopK4eKc0P+P666+PO+64o7ildZ111okePXq89WhpaSm2f0+XPV588cW46aabir1FDj744OJyyJqIDGhuAgMaQLVx8U7pzMQtt9wSjz/+eDz33HPx9NNPFx+33HLL6N27d/Tq1Su222672HPPPcuvqJzIgOYlMKCTa0tcrEo6Y9GvX79YuHBhOdI2IgOak7tIoBPLHRe1sMEGG7i7BJqQwIBOqjPExUoiA5qPwIBOqDPFxUoiA5qLwIBOpjPGxUoiA5qHwIBOpDPHxUoiA5qDwIBOohHiYiWRAY1PYEAn0EhxsZLIgMYmMKCDa8S4WElkQOMSGNCBNXJcrCQyoDEJDOigmiEuVhIZ0HgEBnRAzRQXK4kMaCwCAzqYZoyLlUQGNA6BAR1IM8fFSiIDGoPAgA5CXLxNZEDnJzCgAxAXf0lkQOcmMKCdiYv3JzKg8xIY0I7ExZqJDOicBAa0E3FROZEBnY/AgHYgLqonMqBzERhQZ+Ki9UQGdB4CA+pIXLSdyIDOQWBAnYiLfEQGdHwCA+pAXOQnMqBjExhQY+KidkQGdFwCA2pIXNSeyICOSWBAjYiL+hEZ0PEIDKgBcVF/IgM6FoEBmYmL9iMyoOMQGJCRuGh/IgM6BoEBmYiLjkNkQPsTGJCBuOh4RAa0L4EBbSQuOi6RAe1HYEAbiIuOT2RA+xAY0EriovMQGVB/AgNaQVx0PiID6ktgQJXEReclMqB+BAZUQVx0fiID6kNgQIXEReMQGVB7AgMqIC4aj8iA2hIYsAbionGJDKgdgQGrIS4an8iA2hAY8D7ERfMQGZCfwIBVEBfNR2RAXgID3kNcNC+RAfkIDHgHcYHIgDwEBpTEBSuJDGg7gQHLiQveS2RA2wgMmp644P2IDGg9gUFTExesiciA1hEYNC1xQaVEBlRPYNCUxAXVEhlQHYFB0xEXtJbIgMoJDJqKuKCtRAZURmDQNMQFuYgMWDOBQVMQF+QmMmD1BAYNT1xQKyID3p/AoKGJC2pNZMCqCQwalrigXkQG/CWBQUMSF9SbyIB3Exg0HHFBexEZ8DaBQUMRF7Q3kQErrPXn5crnUHNz5syJX//613HffffFc889F88++2xsvvnm8eSTT0bv3r2jV69e0b9//9hjjz3iM5/5TPlVlREXeaRfjv369YuFCxeWI7TGa6+9Ft27d49XX321HKlceo/Mnj27eL+sfJ/06dMn/vM//7N4j6RHen/su+++seWWW5ZfBR2LwKDm0g/ISy65JH75y1/GRz7ykfjSl74U3bp1ix49erz1SL/Unn/++eLx0ksvxaRJk4qvO+yww+Lkk08uImR1xEU+AiOfaiLjrrvuinHjxsWNN95YxMPQoUOja9euxden98hGG21UhEZ6j6T/Rk888UT86le/ivXXXz9GjhwZZ5xxRvknQccgMKiZN998M0477bSYMGFCnH766bHrrrsWZykqlX6Izpw5M8aOHRtf/OIX4x/+4R+KH6bvJS7yEhh5rSkyUiik90k6O5GCOv1d/uAHP1i+umaPPvpo/O53v4uzzz47LrroovjmN79ZvgLtyxwMaiKdgUg/JD/84Q8Xl0MOPfTQquIiST+UR4wYUfzwTKeH01mPa665pnx1BXFBR7e6ORnnn39+7L333nHggQfGxIkTY9iwYVXFRbL11lvH0UcfXZzdeOqpp2KnnXaKefPmla9C+3EGg+y+853vxAMPPBA/+9nPypF8Tj311Nh0003j4osvFhc14gxGbbz3TMY+++xTnNU76qijiuNcXn755SJYzj333DjkkEPKUag/gUFW6fTsWmutFaeccko5kt9ll11W/EstzdG4/fbby1FyERi18/rrr8fOO+9cXA75wQ9+EJ///OfLV/IbNWpUcWYjzeWA9uASCdmkf4nVOi6S9INzs802Ky6ZQGeSLn+kyPinf/qnmsZFkkL8F7/4RfzkJz8pR6C+BAZZfO973ytmudc6LlY68cQTiztL0sQ26CzSJb3vfve7xRmiekiRMXXq1Jg2bVo5AvUjMGizdFvdI488EqNHjy5H6uPrX/96cZkkTY6Dji7NTRo8eHDxqKd0e/g555wTLS0t5QjUhzkYtFm6U+Tuu++ODTfcsBypn//5n/+Jj3/847Fs2bJyhLYyByO/hx56qJhwmRbQar2lsWTJ23/P1+vaNbqUz9fkP/7jP4qzGTNmzChHoPacwaBN0kS1NPeidXGxNGb9YPtyZcJzYtbScrgK6667bnFZxqUSOrK0Dsy3v/3t8qg6S1pmxPhv7Bs79vpYbLPNNm89PtZr+/jcYaPjqlmLys98f7vsskusvfbaLpVQV85g0GpvvPFGMWntmWeeKUeqtHRW/GCng+Kni1ccHvnLR+KiwV1XHFTpE5/4RLHceDqbQts4g5FXOmvx/e9/P6677rpypFJLY+5VJ8SXz5weC6JbbDl0aBy31+DYapOIRfNnxexpU+PqmctfOevW+MNJ25Zf8/4ee+yxYu6SNTKoF2cwaLW0/PdXvvKV8qh6S+dMK+Ji0KBBxfHVU2fHkuJZ9f7+7//ebHk6pEsvvbT4+1md5XEx/vA4PMVFt6Ex9o474s7Lz4+RwwbHwIGDY9jIs+Oia++JR+64LE7ru7w4KvB3f/d3xZ1XLpNQLwKDVrvhhhtizz33LI+qtTTmTLti+ccBMfSk4bFXGpo4LWa3sjDS95Fmy0NHkk4Qp/1Cqr0ldencK+LMc2fH4ugfZ/18bIzYatVn9rpuNSxGDq4sMJL0fUyePLk8gtoSGLTKiy++WNw5suOOO5YjVVoyO6YWfTF8+b/IBsbQFYUR01pZGNttt11xan/BggXlCLS/FL1DhgwpjyrVElPHjIk5y5/1P+/COGmHSqdyrlm6TVaIUy8Cg1ZJk8XassTxktlT4+rlH/sO6Rt9YpMYuKIwYuKEGbHmKWurdsQRR8Rtt91WHkH7S/vopP1FqjJ3WlwxMz0ZHicNX/PcimqkZfbTPwoefPDBcgRqR2DQKmkHyDQrvXWWxOxpae2KvjF8wIofoJsMHLriMsn0qVHBpPhV+qu/+qtiZ0noKO69996qJx7PnT0ximmYQ4dE/9bNeV6t//qv/4qnn366PILaERi0SlrgKm3c1CpLZseKvhgeZV+kwigvk0yPiTNatyBQjx49ih0loaNId+JU9z5ZEovnr7jLY8CgvlH57IrKpe8nvX+h1tymSqvst99+cdBBB7VqkueiKcdEv1HTo+95t8Ztx719CnjleAwaG3dfOyL6lOOVSosJpRn748ePL0dojT/96U9xwAEHxJ133lmO0FppY7NZs2ZVcRZjUUw5pl+kt8Felz0QVw7Lnxg/+tGPYv3114/zzjuvHIHaEBi0yuGHH17Meah+T4WWmHDYTnHKzAEx9u7rY8Q7K2LRlDim36iYHqt4rQLpPv8zzjijOAVM66X1TdKaIn/7t39bjtBaH/jAB+LWW28tjypR+8BIS+uniEz7B0EtCQxa5eCDD44vfOELxZmMqrRMiMN2OiVmDhgbd1//3rMUb/9wHTD27ri+ysJIW7dfe+21ccstt5QjtIaFtvLp2bNn/Pu//3sVl0mWxIzR28ThV8dfnOHL5YILLii+r29961vlCNSGORi0Slree9Gi6mdjtsyaGsUE+Zar4xtf+lJ86V2PE+KKcpHB2VdMi7krnlbs+eefj969e5dH0P7SL/Lq3iddY6v+A4pn82bNb/UdVauTAtL7hHoQGLRKCoz0g6o6LTFrYsqLbrFln/VWDL3Hen36x6bpybyJMbvKwhAYdDTpfZL+XlajT98h0Tc9mT4z5rR2advVSO/b9H1BrQkMWmX77bevfiZ6y6yYOHv5x0FnxbXXXx/Xr/Lxyzh/ePrkecs/t7rCSHeQVD8nBGrn05/+dDz11FPlUYW2HRLHFqvnT4xxE6s9j7dmaZG8bbfNf+kF3ktg0CppdcKbbrqp2C69UnOnXRFFXwwduJo7RLrGgCFFYcS85TVSzY/XNHlt//33L4+g/e2zzz5x4403lkeV6hNDzzor+i9/NufcM2Pcfa3YZvh9/P73v48PfehDxS3dUGsCg1ZLKxSmCWyVmRuzJ6YJFoNi6MDVT97sOmBoHJmezBsXM+8rhtYoreC59957t2HxL8gvrZqZzqxVO1+py7YnxeWXDY1uMSfGfPnLMX7uqq+VLF00K8Z946qKQzzd0TJ06NDyCGrLT2Nabfjw4ZUvOTx3dhR9sdfwGLymm0O6Doihx6Yni2P8tFlRyb/fHnjggRgxYkR5BB3HMcccU6zRUq0+w8bG9WOHx6aLZ8a5e24TOx42On4wfkJMmzElrhr/gxh92Odip34HxZgZr5RfsWbPPPOMwKBu3KZKm2y99dbFwlZbbbVVObJqc8d/IfY8d17F9/YvnXVOfOygKyK6nRiT7j47Bq5mv6f0L8S0MFRLS+tWAOXd3KaaVzp7keY8/OEPfyhHqrRoVlz1/8bFuKtnxru28uu2ZQw97uw47cgh8T6brb7LlClT4o477ojrrruuHIHaEhi0SdqK+qc//WlceeWV5Uj9jRo1Kg455BBnMDIRGPmdfvrpscEGG8RXv/rVcqR1li5ZEsuKZ+tF167V7bKaJpzec8897rSiblwioU3SQlvrrrtu3H///eVIfT388MPx+uuviws6tIsuuiiuvjrtH9w2Xbp2XR4W6VFdXFxzzTUxcuRIcUFdOYNBm/33f/93dOvWLebPn1+O1E/fvn2L/9+/+Zu/KUdoK2cwaiNNsEyhkX7Z11Pa+fj444+PRx55pByB+nAGgzZLGyf95je/qfstomm58smTJ4sLOoW0MWC606nee4DsvvvuMXdu/vU0YE0EBlnstNNOcfHFF8exxxa3f9Rc2mxt9OjRsdtuu5Uj0PGluRgf+9jH4rTTTitHauvQQw+NP/7xj7HOOuuUI1A/AoNsBg0aFCeeeGLxr7RaSutvnHTSSXHOOecUt6dCZ/Ev//IvxdmEjTfeuAjkWkm74W6xxRZx1VVXxWabbVaOQn0JDLJKKxemO0r69OlT7G6a029/+9vYbrvt4sc//nEceOCBxcTStMaAyKAzSHExY8aM+MUvfhGXXHJJ7LrrrsUdUI899lj5GXmkJfePOuqoWLJkSXz0ox8tR6H+BAbZfepTn4ply5bFpEmTil1S0/LEbfHQQw8Vp3pTuKR9HQYMWLHbZCIy6AzeGRcrpcuJZ5xxRnE27tRTT43FixeXr7ROWlV3l112Kc5epImd66236g0FoV7cRUJNpRUM0w/RtHtj2iAt7WGy6abFfqmrle5gmD59etx7773x9NNPxw9/+MPYY489ylf/UoqaFCA2O2s7d5Hktaq4eK90KSNd8vvkJz9ZTAZN75O0bsaapNu00/skRcWbb75ZvE+23HLL8lVoXwKDukiXN9IdH+mRQiNNOku3tnbv3r04jZtW4Uy/2NK/4tJ+Ir/73e+KuRZphc7VhcU7iYw8BEY+lcTFO91www3FeyStupkuA6Y1XtL7JG1Olj6m2E7/fdLqoOk9k358p/dIevh7T0cjMKi7dFnj8ccfL36BpWW+V/4VTIsA9ezZs1h2PK062Boio+0ERh7VxsV7pShPe4esfJ+kKO/Spctb75MU6s5W0JEJDBqOyGgbgdF2bY0LaAQmedJwTPykPYkLWEFg0JBEBu1BXMDbBAYNS2RQT+IC3k1g0NBEBvUgLuAvCQwansiglsQFrJrAoCmIDGpBXMD7Exg0DZFBTuICVk9g0FREBjmIC1gzgUHTERm0hbiAyggMmpLIoDXEBVROYNC0RAbVEBdQHYFBUxMZVEJcQPUEBk1PZLA64gJaR2DAciKDVREX0HoCA0oig3cSF9A2AgPeQWSQiAtoO4EB7yEympu4gDwEBqyCyGhO4gLyERjwPkRGcxEXkJfAgNUQGc1BXEB+AgPWQGQ0NnEBtSEwoAIiozGJC6gdgQEVEhmNRVxAbQkMqILIaAziAmpPYECVREbnJi6gPgQGtILI6JzEBdSPwIBWEhmdi7iA+hIY0AYio3MQF1B/AgPaSGR0bOIC2ofAgAxERsckLqD9CAzIRGR0LOIC2pfAgIxERscgLqD9CQzITGS0L3EBHYPAgBoQGe1DXEDHITCgRkRGfYkL6FgEBtSQyKgPcQEdj8CAGhMZtSUuoGMSGFAHIqM2xAV0XAID6kRk5CUuoGMTGFBHIiMPcQEdn8CAOhMZbSMuoHMQGNAOREbriAvoPAQGtBORUR1xAZ2LwIB2JDIqIy6g8xEY0M5ExuqJC+icBAZ0ACJj1cQFdF4CAzoIkfFu4gI6N4EBHYjIWEFcQOcnMKCDafbIEBfQGAQGdEDNGhniAhqHwIAOqtkiQ1xAYxEY0IE1S2SIC2g8AgM6uEaPDHEBjUlgQCfQqJEhLqBxCQzoJBotMsQFNDaBAZ1Io0SGuIDGJzCgk+nskSEuoDkIDOiEOmtkiAtoHgIDOqnOFhniApqLwIBOrLNEhriA5iMwoJOrRWT8+c9/Lp+1nbiA5rTW8h8k+X6SAO3mU5/6VFx55ZXRr1+/cmTNXn311ZgyZUrce++9MXv27Fi4cGE8++yzsfPOO8ecOXOiV69e0bNnz9hpp51ijz32iC9+8YvlV1ZGXEDzEhjQQCqNjJtvvjkuv/zy+O1vfxv77LNP7LvvvrHxxhvHJptsEj169Ii11147li1bFi+88ELxaGlpiRtvvDFuv/32OO644+KrX/1qbL/99uWftmriApqbwIAGs7rI+P3vfx+nn356rLfeenH88cfHgAEDylcq83//938xc+bM+OEPfxjbbrttXHzxxdG7d+/y1beJC0BgQANaVWR861vfiunTp8e3v/3tqsNiVSZPnhyXXnppnHLKKfGVr3ylHBUXwAoCAxrUOyNjzz33jN133z2OOuqo8tV8Ro8eHV27di1iQ1wAKwkMaGBpvsSdd94Z3/3ud2O33XYrR/P7+c9/Xlx+SZNBzzzzzHIUaGYCAxrYFltsEZdddllVd5a01vjx44tbZtOlEwCBAQ1q//33jwMPPDD22muvcqT2xo4dG126dInzzz+/HAGalYW2oAGNGTOmmMhZz7hI0oTPdFvrDTfcUI4AzcoZDGgwzzzzTOyyyy5x9913lyP19fLLL8dnP/vZeOmll8oRoBkJDGgww4cPL1bdTJdIVmvRlDim36iYXh7+hU37x/CRx8aRw4fFDpuUYxW68MILo3v37nHWWWeVI0CzERjQQNKdHKeeempMmDChHFmNtwJjQJz489Ni8Ibl+HLLFs2PGdPHx9Spf4zFsWkMH3ttXDhiq+hSvl6J/v37FyuAfuADHyhHgGZiDgY0kH/8x3+MoUOHlkeV2jD69h8YAwe+/Rg8bGScf/mdcccdY2P4pgti4ilfilMmtMTS8isqsffeexffD9CcBAY0kLRfSM6JnV23GhE/vv6yGNptcUw95YS4Ym7liZG+j6lTp5ZHQLMRGNAg0m6om2++eXzkIx8pRzLpMyzOOy9Fy5wYM2ZqtKwYXaNdd9017rrrrnj99dfLEaCZCAxoEOmX+QEHHFAe5bXJkOPixG7Ln8y8IqbNXTFWiaOPPjpuu+228ghoJgIDGsRDDz0U66+/fnmUWZf+MbiY2jEvJs6uvDD+93//N5566qnyCGgmAgMaxHPPPRc9evQoj3LrElv1XzG3Y96cBbGoeLZm6VbV9H0BzUdgQINIv8jTL/Ra2XCTPiueLK18oucmm2wiMKBJCQxoEGly54YbvmMxi8y6rLde+axyG220UazXiq8DOj+BAQ0izXd49tlny6P8FrXML59VLi1bnjY/A5qPwIAG0bt373j++efLo/xaFswpPnbbYauodOXwRYsWRc+ePcsjoJkIDGgQKTDSTqa1MTfmTF28/GO3OG7AtiuGKrB48WKBAU1KYECD+MxnPhNz51axSEUVlsy4OsbNW/6k/0kxaIcVY5VI38+nP/3p8ghoJgIDGkTag+SWW24pjzJqmRJnfuPqWBzd4tizjoxKz188/fTT8eqrr8Z2221XjgDNRGBAg/jrv/7r2GGHHYoVPXNZMn9KjD5hVKSrI/3P+nmcNbDyCZvTp09vxcZrQKMQGNBAjjjiiGLL9uq8EvPmzIpZs95+TJswPs454XOx666j4uo5m8ZeF94ak07aoart2ufPnx8HHXRQeQQ0m7X+vFz5HGgAvXr1iptvvnnNq3oumhLH9BsV08vD9+q25YAYPOLIOHL4sNih0ttGSrfffntce+21tblkA3QKAgMazDXXXBNTpkyJSy+9tBypv9133z0mTZoUffv2LUeAZuMSCTSYdJlk2bJl8cQTT5Qj9XXTTTfFXnvtJS6gyTmDAQ3olVdeiT59+sSjjz5ajtRHWrnzkEMOiSeffLIcAZqVMxjQgNKeJGn+w7Bhw8qR+kiXRubNSwtmAM1OYECD+uxnP1vMwzjyyCPLkdoaPnx4PPbYY7H++uuXI0AzExjQwHbcccf4+te/HoMHD45aXQ19/PHHY9NNN42rr766+AiQCAxocPvtt19Mnjy5WEr8hhtuKEfz+Od//uc44YQTip1cN99883IUQGBAU9hmm22ipaWlWEQr3eFxxx13lK+0zoQJE+KTn/xkvPbaa/Hwww/H2mv7UQK8m7tIoMk88MADcfrppxf7hAwYMCCGDBlSxMKapCi59dZbiz1G0qWQiy++OLp161a+CvBuAgOa1IMPPhhTp04tLp907949XnzxxeJjeqTLHWkdjbT9+6JFi+KNN94oYuKAAw4oLrlsttlm5Z8CsGoCA4gFCxYUa1gsXLgwnnvuuWJORbobJC073rNnz9h6662LzdQAKiUwAIDszMwCALITGABAdgIDAMhOYAAA2QkMACA7gQEAZCcwAIDsBAYAkJ3AAACyExgAQHYCAwDITmAAANkJDAAgO4EBAGQnMACA7AQGAJCdwAAAshMYAEB2AgMAyE5gAADZCQwAIDuBAQBkJzAAgOwEBgCQncAAALITGABAdgIDAMhOYAAA2QkMACA7gQEAZCcwAIDsBAYAkJ3AAACyExgAQHYCAwDITmAAANkJDAAgO4EBAGQnMACA7AQGAJCdwAAAshMYAEB2AgMAyE5gAADZCQwAIDuBAQBkJzAAgOwEBgCQncAAALITGABAdgIDAMhOYAAA2QkMACA7gQEAZCcwAIDsBAYAkJ3AAACyExgAQHYCAwDITmAAANkJDAAgO4EBAGQnMACA7AQGAJCdwAAAshMYAEB2AgMAyE5gAADZCQwAIDuBAQBkJzAAgOwEBgCQncAAALITGABAdgIDAMhOYAAA2QkMACA7gQEAZCcwAIDsBAYAkJ3AAACyExgAQHYCAwDITmAAANkJDAAgO4EBAGQnMACA7AQGAJCdwAAAshMYAEB2AgMAyE5gAADZCQwAIDuBAQBkJzAAgOwEBgCQncAAALITGABAdgIDAMhOYAAA2QkMACA7gQEAZCcwAIDsBAYAkJ3AAACyExgAQHYCAwDITmAAANkJDAAgO4EBAGQnMACA7AQGAJCdwAAAshMYAEB2AgMAyE5gAADZCQwAIDuBAQBkJzAAgOwEBgCQncAAALITGABAdgIDAMhOYAAA2QkMACA7gQEAZCcwAIDsBAYAkJ3AAACyExgAQHYCAwDITmAAANkJDAAgO4EBAGQnMACA7AQGAJCdwAAAshMYAEB2AgMAyE5gAADZCQwAIDuBAQBkJzAAgOwEBgCQncAAALITGABAdgIDAMhOYAAA2QkMACA7gQEAZCcwAIDsBAYAkJ3AAACyExgAQHYCAwDITmAAANkJDAAgO4EBAGQnMACA7AQGAJCdwAAAshMYAEB2AgMAyE5gAADZCQwAIDuBAQBkJzAAgOwEBgCQncAAALITGABAdgIDAMhOYAAA2QkMACA7gQEAZCcwAIDsBAYAkJ3AAACyExgAQHYCAwDITmAAANkJDAAgO4EBAGQnMACA7AQGAJCdwAAAshMYAEB2AgMAyE5gAADZCQwAIDuBAQBkJzAAgOwEBgCQncAAALITGABAdgIDAMhOYAAA2QkMACA7gQEAZCcwAIDsBAYAkJ3AAACyExgAQHYCAwDITmAAANkJDAAgO4EBAGQnMACA7AQGAJCdwAAAshMYAEB2AgMAyE5gAADZCQwAIDuBAQBkJzAAgOwEBgCQncAAALITGABAdgIDAMhOYAAA2QkMACA7gQEAZCcwAIDsBAYAkJ3AAACyExgAQHYCAwDITmAAANkJDAAgO4EBAGQnMACA7AQGAJCdwAAAshMYAEB2AgMAyE5gAADZCQwAIDuBAQBkJzAAgOwEBgCQncAAALITGABAdgIDAMhOYAAA2QkMACA7gQEAZCcwAIDsBAYAkJ3AAACyExgAQHYCAwDITmAAANkJDAAgO4EBAGQnMACAzCL+P949sfiH6DhfAAAAAElFTkSuQmCC;strokeColor=#1d1d1d;clipPath=inset(0% 18.33% 20.53% 16%);" parent="1" vertex="1">
          <mxGeometry x="-670" y="-1130" width="442.70640176600443" height="509" as="geometry" />
        </mxCell>
        <mxCell id="KtmWubHa4JedQPkCyYTC-6" value="" style="endArrow=none;html=1;rounded=0;strokeColor=#C2C2C2;strokeWidth=3;dashed=1;dashPattern=1 1;" parent="1" edge="1">
          <mxGeometry width="50" height="50" relative="1" as="geometry">
            <mxPoint x="-491" y="-775" as="sourcePoint" />
            <mxPoint x="-464" y="-818" as="targetPoint" />
          </mxGeometry>
        </mxCell>
        <mxCell id="KtmWubHa4JedQPkCyYTC-7" value="" style="endArrow=none;html=1;rounded=0;strokeColor=#C2C2C2;dashed=1;dashPattern=1 1;strokeWidth=3;" parent="1" edge="1">
          <mxGeometry width="50" height="50" relative="1" as="geometry">
            <mxPoint x="-407" y="-775" as="sourcePoint" />
            <mxPoint x="-431" y="-818" as="targetPoint" />
          </mxGeometry>
        </mxCell>
        <mxCell id="B-toSVo07tlLabul9Eki-3" value="" style="rounded=1;whiteSpace=wrap;html=1;fillColor=#3B3B3B;strokeColor=#FFFFFF;glass=0;shadow=0;" vertex="1" parent="1">
          <mxGeometry x="-540" y="-763" width="191.04" height="120" as="geometry" />
        </mxCell>
        <mxCell id="B-toSVo07tlLabul9Eki-4" value="&lt;font face=&quot;Verdana&quot;&gt;&lt;i&gt;Node D&lt;/i&gt;&lt;/font&gt;" style="text;html=1;align=center;verticalAlign=middle;whiteSpace=wrap;rounded=0;fontColor=#FFFFFF;strokeColor=#FFFFFF;" vertex="1" parent="1">
          <mxGeometry x="-475" y="-763" width="60" height="20" as="geometry" />
        </mxCell>
        <mxCell id="B-toSVo07tlLabul9Eki-5" value="&lt;font size=&quot;1&quot; face=&quot;Verdana&quot; color=&quot;#ffffff&quot;&gt;&lt;i style=&quot;font-size: 14px;&quot;&gt;ILVQ Model&lt;/i&gt;&lt;/font&gt;" style="rounded=1;whiteSpace=wrap;html=1;strokeColor=#FFFFFF;fillColor=#666666;" vertex="1" parent="1">
          <mxGeometry x="-470" y="-703" width="50" height="45" as="geometry" />
        </mxCell>
        <mxCell id="B-toSVo07tlLabul9Eki-6" value="" style="curved=1;endArrow=classic;html=1;rounded=0;strokeColor=#FFFFFF;exitX=0.993;exitY=0.552;exitDx=0;exitDy=0;exitPerimeter=0;" edge="1" parent="1" source="B-toSVo07tlLabul9Eki-5" target="B-toSVo07tlLabul9Eki-3">
          <mxGeometry width="50" height="50" relative="1" as="geometry">
            <mxPoint x="-400" y="-673" as="sourcePoint" />
            <mxPoint x="-380" y="-703" as="targetPoint" />
            <Array as="points">
              <mxPoint x="-390" y="-683" />
              <mxPoint x="-400" y="-703" />
            </Array>
          </mxGeometry>
        </mxCell>
        <mxCell id="B-toSVo07tlLabul9Eki-7" value="" style="endArrow=none;html=1;rounded=0;strokeColor=#FFFFFF;exitX=0.004;exitY=0.844;exitDx=0;exitDy=0;exitPerimeter=0;entryX=1;entryY=0.5;entryDx=0;entryDy=0;" edge="1" parent="1" source="B-toSVo07tlLabul9Eki-3">
          <mxGeometry width="50" height="50" relative="1" as="geometry">
            <mxPoint x="-509.98464" y="-661.46" as="sourcePoint" />
            <mxPoint x="-498.96000000000004" y="-661.46" as="targetPoint" />
          </mxGeometry>
        </mxCell>
        <mxCell id="B-toSVo07tlLabul9Eki-8" value="" style="endArrow=none;html=1;rounded=0;strokeColor=#FFFFFF;exitX=0.005;exitY=0.559;exitDx=0;exitDy=0;exitPerimeter=0;entryX=1;entryY=0.5;entryDx=0;entryDy=0;" edge="1" parent="1">
          <mxGeometry width="50" height="50" relative="1" as="geometry">
            <mxPoint x="-540.0048" y="-688" as="sourcePoint" />
            <mxPoint x="-498.75" y="-688" as="targetPoint" />
          </mxGeometry>
        </mxCell>
        <mxCell id="B-toSVo07tlLabul9Eki-9" value="" style="endArrow=none;html=1;rounded=0;strokeColor=#FFFFFF;exitX=0.007;exitY=0.416;exitDx=0;exitDy=0;exitPerimeter=0;entryX=1;entryY=0.5;entryDx=0;entryDy=0;" edge="1" parent="1" source="B-toSVo07tlLabul9Eki-3">
          <mxGeometry width="50" height="50" relative="1" as="geometry">
            <mxPoint x="-509.96000000000004" y="-713.28" as="sourcePoint" />
            <mxPoint x="-498.96000000000004" y="-713.28" as="targetPoint" />
          </mxGeometry>
        </mxCell>
        <mxCell id="B-toSVo07tlLabul9Eki-10" value="" style="endArrow=none;html=1;rounded=0;strokeColor=#FFFFFF;entryX=1;entryY=0.5;entryDx=0;entryDy=0;exitX=0.995;exitY=0.467;exitDx=0;exitDy=0;exitPerimeter=0;" edge="1" parent="1">
          <mxGeometry width="50" height="50" relative="1" as="geometry">
            <mxPoint x="-499.21519999999987" y="-713.1975" as="sourcePoint" />
            <mxPoint x="-498.96000000000004" y="-661.46" as="targetPoint" />
          </mxGeometry>
        </mxCell>
        <mxCell id="B-toSVo07tlLabul9Eki-11" value="" style="curved=1;endArrow=classic;html=1;rounded=0;strokeColor=#FFFFFF;entryX=0;entryY=0.75;entryDx=0;entryDy=0;" edge="1" parent="1" target="B-toSVo07tlLabul9Eki-5">
          <mxGeometry width="50" height="50" relative="1" as="geometry">
            <mxPoint x="-500" y="-683" as="sourcePoint" />
            <mxPoint x="-443.96000000000004" y="-680.5" as="targetPoint" />
            <Array as="points">
              <mxPoint x="-490" y="-683" />
              <mxPoint x="-490" y="-667" />
            </Array>
          </mxGeometry>
        </mxCell>
        <mxCell id="B-toSVo07tlLabul9Eki-12" value="" style="curved=1;endArrow=classic;html=1;rounded=0;strokeColor=#FFFFFF;entryX=0;entryY=0.25;entryDx=0;entryDy=0;" edge="1" parent="1" target="B-toSVo07tlLabul9Eki-5">
          <mxGeometry width="50" height="50" relative="1" as="geometry">
            <mxPoint x="-539.48" y="-737.75" as="sourcePoint" />
            <mxPoint x="-509.48" y="-721.75" as="targetPoint" />
            <Array as="points">
              <mxPoint x="-480" y="-733" />
              <mxPoint x="-500" y="-683" />
            </Array>
          </mxGeometry>
        </mxCell>
        <mxCell id="B-toSVo07tlLabul9Eki-15" value="&lt;font color=&quot;#ffffff&quot; size=&quot;1&quot; face=&quot;Verdana&quot;&gt;&lt;i style=&quot;&quot;&gt;Sensor D&lt;/i&gt;&lt;/font&gt;" style="text;html=1;align=center;verticalAlign=middle;whiteSpace=wrap;rounded=0;strokeColor=none;" vertex="1" parent="1">
          <mxGeometry x="-600" y="-780" width="60" height="20" as="geometry" />
        </mxCell>
        <mxCell id="B-toSVo07tlLabul9Eki-18" value="" style="curved=1;endArrow=classic;html=1;rounded=0;dashed=1;strokeColor=#FFFFFF;sourcePerimeterSpacing=0;endSize=6;" edge="1" parent="1">
          <mxGeometry width="50" height="50" relative="1" as="geometry">
            <mxPoint x="-585" y="-713" as="sourcePoint" />
            <mxPoint x="-545" y="-713" as="targetPoint" />
            <Array as="points" />
          </mxGeometry>
        </mxCell>
        <mxCell id="B-toSVo07tlLabul9Eki-19" value="" style="curved=1;endArrow=classic;html=1;rounded=0;dashed=1;strokeColor=#FFFFFF;" edge="1" parent="1">
          <mxGeometry width="50" height="50" relative="1" as="geometry">
            <mxPoint x="-585" y="-688" as="sourcePoint" />
            <mxPoint x="-545.38" y="-688" as="targetPoint" />
            <Array as="points" />
          </mxGeometry>
        </mxCell>
        <mxCell id="B-toSVo07tlLabul9Eki-20" value="" style="curved=1;endArrow=classic;html=1;rounded=0;dashed=1;strokeColor=#FFFFFF;" edge="1" parent="1">
          <mxGeometry width="50" height="50" relative="1" as="geometry">
            <mxPoint x="-585" y="-662" as="sourcePoint" />
            <mxPoint x="-545.38" y="-662" as="targetPoint" />
            <Array as="points" />
          </mxGeometry>
        </mxCell>
        <mxCell id="B-toSVo07tlLabul9Eki-24" value="A" style="text;html=1;align=center;verticalAlign=middle;whiteSpace=wrap;rounded=0;fontColor=#FFFFFF;" vertex="1" parent="1">
          <mxGeometry x="-623" y="-728" width="60" height="30" as="geometry" />
        </mxCell>
        <mxCell id="B-toSVo07tlLabul9Eki-25" value="B" style="text;html=1;align=center;verticalAlign=middle;whiteSpace=wrap;rounded=0;fontColor=#FFFFFF;" vertex="1" parent="1">
          <mxGeometry x="-623" y="-704" width="60" height="30" as="geometry" />
        </mxCell>
        <mxCell id="B-toSVo07tlLabul9Eki-26" value="C" style="text;html=1;align=center;verticalAlign=middle;whiteSpace=wrap;rounded=0;fontColor=#FFFFFF;" vertex="1" parent="1">
          <mxGeometry x="-623" y="-677" width="60" height="30" as="geometry" />
        </mxCell>
        <mxCell id="B-toSVo07tlLabul9Eki-29" value="" style="curved=1;endArrow=classic;html=1;rounded=0;dashed=1;strokeColor=#FFFFFF;sourcePerimeterSpacing=0;endSize=6;exitX=1;exitY=0.5;exitDx=0;exitDy=0;" edge="1" parent="1" source="B-toSVo07tlLabul9Eki-3">
          <mxGeometry width="50" height="50" relative="1" as="geometry">
            <mxPoint x="-348.96000000000004" y="-704" as="sourcePoint" />
            <mxPoint x="-310" y="-703" as="targetPoint" />
            <Array as="points" />
          </mxGeometry>
        </mxCell>
        <mxCell id="B-toSVo07tlLabul9Eki-30" value="" style="curved=1;endArrow=classic;html=1;rounded=0;dashed=1;strokeColor=#FFFFFF;sourcePerimeterSpacing=0;endSize=6;exitX=1;exitY=0.5;exitDx=0;exitDy=0;" edge="1" parent="1">
          <mxGeometry width="50" height="50" relative="1" as="geometry">
            <mxPoint x="-348.96" y="-703" as="sourcePoint" />
            <mxPoint x="-309.96" y="-730" as="targetPoint" />
            <Array as="points" />
          </mxGeometry>
        </mxCell>
        <mxCell id="B-toSVo07tlLabul9Eki-31" value="" style="curved=1;endArrow=classic;html=1;rounded=0;dashed=1;strokeColor=#FFFFFF;sourcePerimeterSpacing=0;endSize=6;exitX=1;exitY=0.5;exitDx=0;exitDy=0;" edge="1" parent="1">
          <mxGeometry width="50" height="50" relative="1" as="geometry">
            <mxPoint x="-348.96" y="-703" as="sourcePoint" />
            <mxPoint x="-309.96" y="-674" as="targetPoint" />
            <Array as="points" />
          </mxGeometry>
        </mxCell>
        <mxCell id="B-toSVo07tlLabul9Eki-32" value="A" style="text;html=1;align=center;verticalAlign=middle;whiteSpace=wrap;rounded=0;fontColor=#FFFFFF;" vertex="1" parent="1">
          <mxGeometry x="-330" y="-748.38" width="60" height="30" as="geometry" />
        </mxCell>
        <mxCell id="B-toSVo07tlLabul9Eki-33" value="B" style="text;html=1;align=center;verticalAlign=middle;whiteSpace=wrap;rounded=0;fontColor=#FFFFFF;" vertex="1" parent="1">
          <mxGeometry x="-330" y="-719.5" width="60" height="30" as="geometry" />
        </mxCell>
        <mxCell id="B-toSVo07tlLabul9Eki-34" value="C" style="text;html=1;align=center;verticalAlign=middle;whiteSpace=wrap;rounded=0;fontColor=#FFFFFF;" vertex="1" parent="1">
          <mxGeometry x="-330" y="-688" width="60" height="30" as="geometry" />
        </mxCell>
        <mxCell id="B-toSVo07tlLabul9Eki-35" value="" style="shape=image;verticalLabelPosition=bottom;labelBackgroundColor=default;verticalAlign=top;aspect=fixed;imageAspect=0;image=data:image/png,iVBORw0KGgoAAAANSUhEUgAAAQQAAAEECAYAAADOCEoKAAAABHNCSVQICAgIfAhkiAAAIABJREFUeF7tnQd4FcUWx0/ovbcgvSPwFDXYfaIoINjpvYg0C9IUQXoTFKX3IiAiTVGaCOJD9GkiwlOQIr1IJ0DoJOTtCQbCvbN75+zMvbm7e+b7+D4yc6bsb/b+d3Z25gwABybABJgAE2ACTIAJMAEmwASYABNgAkyACTABJsAEmAATYAJMgAkwASbABJgAE2ACTIAJMAEmwASYABNgAkyACTABJsAEmAATYAJMgAkwASbABJgAE2ACTIAJMAEmwASYABNgAkyACTABJsAEmAATYAJMgAkwASbABJgAE2ACTIAJMAEmwASYABNgAkyACTABJsAEmAATYAJMgAkwASbABJgAE2ACTIAJMAEmwASYABNgAkyACTABJsAEmAATYAJMgAkwASbABJgAE2ACTIAJMAEmwASYABNgAkyACTABJsAEmAATYAJMgAkwASbABJgAE2ACTIAJMAEmwASYABNgAkyACTCBUBCICEUlXEdoCURFRSUGs8aYmBi+b4IJOBXL5o5NRfiqVQf7h2+nfSwWdqiFTx4WhPDpC8uWJCZCRLVqUdctjcIwkQUiDDvFokksCBZwUjPJqQIQiBkLRCBCqZvOgpC6/P1qD8fXAL9GaopgcdAEUmMxLAgaYdotyksiIGIUXScmbUR/cNzrkOhanB7HgpBKPeh1ETDDzqMGMzKhiWdBCA3nm7WwEMgBZ2GQ46TbigVBN1GT8lgITMAEiGZhCABIczILgmagvsWxEPgSsfd3dI+YdBENIMFebs4lS4AFQZYU0Y6FgAhM0pxHDJKgbJqxINgEZ5YtsT+kqbY8ip9kZoA0xbMwaALpUwwLgkauPCrQCFOiqDQREPtLdEweCVM2kSTAgiAJysqMhcCKTvDToqNj0kREQFA3dAX/KsKjBhYEhX64v1rU6euJkFuhCM6qkQC/RqjDTKNehDdLwFEBi0F49T32SeICSBterXJWa3iEYKO/+BXBBrQQZ+HRgj3gLAgEbiwEBFhhYMqiQO8EFgRJZiwGkqDC0IyFQb5TeA4hACv0S8BiEABSmCdz/8l3EAuCBat1/SGdE70UWVySZ5NYFOS6nl8ZTDj9NaZMxiZzcl82SeZohxLg1wfrjmNBEPDhp4kAiouiWBTMO5MFwYcNi4H5zeKmFBYFcW+yIKTgwmIgvkncGsui4N+zLAj/MGEx8L85vBDDonB7L/NXBoMHi4EXfvria8S+x0/L4lTvxXoeBIuB92560RXzSOEGFU8LAouB6Kfh3TgWBfDuUInFwLs/fKsr97ooeHIOAVcgWt0UnOZdAl5/UHjylcHrne7dn7v8lXt1pOA5QWAxkP9ReN3Si6LgqVeGYIjB96s+g3Ur5kD5SM9pa1joxbwRz0B0dDTMHvSo9vbUr33fA9oLDfMCPSMIwRCD75bPgix5SkPWfOVh8qz5UL0Se+8K5f3+6fu1oMzj/ZOqrFDzQ/h0+NNaq993MuK/Wgt0QGGeeKwFQwy+/XIi5Cx8721dfOnMPni1ZUPYcYQdAAf73p879EkoV2OYXzW71w+Bxt2X+sWrRHjp1cEzIwSVG8I37+olY/zEAG0y5yoBUz75HNrVzOCbhf/WSABfD0RigFWUfqw3fP5RPY21eWslq+sFQffoYNXCDyFXEfNXSxSF5j3msyho/UneKgzFAF8PrELJh3vC4ontrEzIaXgiFzmTAzO4+pVBtxis/Hw45C35hFQ3Xz53COaMbARTv7kqZc9GgQl8MuABqFh7TGDDfyz2/zIW6r8+R9o+kKEXXh1cq3q6FX3Z3L7SYoA3VqYcRaBZ93lQ/yFeAxXohyaT/smAh0higGUWv/91mDOkukzxUja6HzBSlYbYyLWCoPPA1S+mvAYFytUld03mnMWgYdPm5Hyc4XYCU3uWMcTgY1tYyj/1PkzrVdFWXlEmdK0nindLnCsFQaeSzxn8ONxxdwtb/X1yzxqo13mmrbyc6RaBdiN2wb6fRtlGcuczY2HimwVs50+Z0e1+Nl0pCFp63ihkSo9SUP7pEbaKO/rnYnim0bu28nImfwINusyH7au6+idIxKTLmAMqPTtJ2+IxnQ8cieaH1MR1gqCrs3CR0Z11xtrqjIO/TYfnWr1vKy9nMifQou8G2PJ1e3MDixSc0xk3cbyFBSchAVcJgs6DPnsPnQAZsuQn3yUHYibCyx0mk/NxBjkCbQZtgj9XvC5n7GOVs/B9xhqF+rby+mbS9eDxLTe1/3aVIFQbGRWvA+jSGd0gR2RVclFHti7gOQMyNXqGVv1/gZ1r7L2OlXy4B0zuVpReqSCHGycYXSMIuhR7Zr/7ILJyQ0H3W0ed+GslPN/6A2sjTtVGoNm7a2DvT/Z4B1rYJNtIN04wukYQZDsxkF25J4cGMvFLP73/B6jTtJ9fPEcEl0DDLgvg0Cb6VxxcTYqjQB1B14NIR1t0lOEKQdDVKcvm9oP0mXKRuF4+exBq1ddzc5EqZuMkAi+1nwjHdy4j08BR4Kz+95PzuT2DKwRBRyfhq0KBcnVIRSVcu2hMcL1GysPG+gnUbTYQ4o79QS64bPWB5DyiDLoeSKKyQx3neEHQ1RnlnhhMZr9jdU/o8NERcj7OoJ/A9m+6QcK1C6SC02fOrX0TFKkBYWjseEHQwfTr2X0gfeY8pKJwrUGrAdGkPGx8g8DA5llhUtc7tOLoPO4M/PXde+Qyi97bDsa/RntNFFWi68EkKjuUcY4WBB2dMLl7cShY4TkS8/Mnt2tfazD+tZyw/tvFSe7AZvS5m9QeJxlPeisSarT7Eu5p9AXM//BFrU1v8d4GOLJ1IbnMkg/xHFAyNEcLArnnBRlKPNBFEGselXDtkrGE9i1zAxsp+LS8q95nkCnnje/juEJy+ruVbJQU3llQDKq8MAvSZcqZ1NBSj/aCJZM6aG30861HwsXTu0hl5itTE6a+XY6UR2Ss4wElKjeUcY4VBB3wp71THnIXexiA4PFs9/rB0GnMKW19NO2dCnDXy3ONVZH5bpaZJm1GY9n0BMD2uSVM7FIQqjw/w3g1y33bJRW5pw0sm0Mf6ltx2b66h1WyMK30v/sI470W6VhB0NFRxap1vlGMpJuYU3u/h2a9vtVRdVIZ03vdaWy6mQxp02f1E6W06TNDpboTjQ1WJbXVl1oFTXgzvzEyMMQgS15hEwqUfxZWzBskTLMT2WHUYUDnKJSQLV8FmNn3dh+ZlPzJtk4/ONazgoBPZitXaKKbYe+G4aJoW3FYf6XnUAwy38gvEKW0GbJB5eemGhNwRWzVEQ6ZJryeB/71wsyA+0Jw2L50ZndtTUZPSVfOHyOVV6RqG5K9yLhatajroninxDlSEHS8LhR/4E1SH+GmpU5jT5PymBlP7FLIeCUYD/hqECjg1t0qz0/Xtp8/UH0603GitLIxMsiQVc4XQWSlBrBofGttTdj380eksnLeEQXojMXLwZGCoNphOFT3daFuVeaVuL+1bVrCH0mVF6ZDuozZraq8LQ3fu3HIjU9bpwR0HVfZELJM2QuTmlwsqqNxvkJNUh4z4+bvfgdxx7eYJQvj79AwStDxwBI2LgSRnhSEQlUakdDu/S/tSWNVeKW6kwIOn0X58Slb8pG3RUlhGdewWUtAF3J2Ak7w6dqRuHcDzS9FvtI1ACdAvRocJwiq6otHruUvU0u6vy+dPQAt+vxH2t7KcOn0rkknPdkJJ3d/C7UbOkcQ6nWaDgc3TrNzqUmvUhUNt2c6wivDd8DJXd9YFOX/ialQJfpuV4sKHJXkOEFQpTu4VxNSEYc2TiHZmxnjYqNI4sgkuaw9xlPumca9zYoO2/iXO06Brcs6wrXLZ8htxFeNFfPpO09FFR341cphjf9sLnVPi6hO1QeXqMxQxDlKEHR80ilkTFzJBpw7aPrOallzS7tyNYZYppslblv5JjTqutgsOezjWw/cCL8vbgbXLsWS25qvVA2YPfgxcj7fDB1GHYIzh+SXmeOcjVd3QjpKEFQ/6eB35ozZI33vF9O/D2/+xDSNkoB7Jey4Y/tzeWdo2c/55412HH0c/ljaBuKvnKNgS7ItpWne5MiWz0h1F6zwAsneLcaOEgRV6JTRAdbVqNsXqlUaS2LLkvdKYKUoBq0GxCjXHy4F4GKhP5a2NXYkXiI1CYX0y+nqS8Vb9v3RWJdwVLruvKWelLY1M9R9WJBZPTrjPSUIeUvKn+JzYtcqLZzx8FFqQNdgbhKD5Otv/8F+2LmW7guxcJXGMKV7CSpGP/sjW+b7xflPKd4yUd18pfOwIL+GBynCMYKgOn+AR4FRwvFtX1LMhbZzhz0F2fLfKUwzizyxcwWgazC3BnxSH9w4lXx51IVkogoavDHPL9p/SvGWSV5jDsNrwTGCoDp/kAs3MUmGqxeOQ+tBv0lam5uVePDGTkqrp1DK3Bdj90KdZv3NC3RJyssdpxqTfD+TrgY3oek4ku3YNvnXQFy56LXgGEFQ7Zg8xeVnq/Gbv2rA1XbJE4lWT6GU9fy1lv56odrO1Mo/7L23yJOMJR9S3+twcjftq9EnAx5UQuS0eQRPCALuw8+YTX71WezBH5VuAsxc+C7aeZDoPRjPMPRKWLc1AXat60+63OwFq8D03lVIeXyN8TMoZWKTMrL0rQv/dto8giMEQfVAjCSfB4TQesCvBGt/U7xps+Yt659gEnPt0ukk78FeC3g0G3U0VrCiupelM4fkP+XmLfG4p7rFEYKgeiBGrqLyghB78CflG6BwFdpqSDuTbMqNDJMC9v38Makl+Uo/RbIXGcfuXy+KFsbhHhLcneqV4AhBUO2MHJH3SBdx5qD808OsUMo37KsXTjh6JaIZA9n4TqNPAJ6U7RvMJmJxn8O8ETR3+b5lb/r5O98oy79zFpa/fywLckCi6wVhwhv5bjkhkeiQc39vlLAyN5k9+N/miYKUQ5tmCGK9FbV57Ti/C7aaiC1QnuYU17fwkUsuw/njW32jTf/Omq+iaZpMgpP2NbheELLlryDTZ0k21xOuKE/sUUYH1+Mve3p0kNwxfedcAMpCMDyIF3etqoTThNeGrIZ7Na+EdG6/0Cx55Tsz7ujvyjjyFH9UuoxjO76SttVtiN/0M2YrlHQeRdr0WYzNR6fg6sVTcOHUX9BZk2coSptxfQBlW3q/rnWgSQ/6EW7JbTp3dLN089DfoldC2AtC4gJIW22k/e7Ilk/eczHlJhG1aEaff91wmCpKFMQdtXGGgKAY6ajZgx6B/OWeTfIledOXoyD393V2Az5Bx46ZAvh5MBShzaBN8EP1o0kiJRPylnjCMLMvCNu2boPKz8rUBJAmXUbAT9deOKUr7F8Zqo2MipfrNrFVVoogHFFbnZijkPwBK3hILK7tD0VAl3HfLZsJFWqOAtzPYSUG2B504lKkamsYNnUdLJrQNhRNTKrj+A75H3ju4o8otQvnEeIvn5UuI2t+tXkE6YpS2TDsBUGVj+wTB+s5uHe7UnXZC1X1y580Wy6YMj+5Z62fbTAiPv+4AVR5cRZkK0A/+CVNukxQ7L72sPbr6crv7DLXFrv/PzJmN21Uz624QDjQxSvzCK4WhCk9ae7KcHJLJeSI9B8hJE19Cea/Tu+lffqy0y50a65juS+uEJw6ZzHgmYzBDOjujOJIJVuBykrNoZzwlDW3N7wxu1oQUp6GFOjOwY1FKmHSW4Wl5w/wa8Yrw9VGI4HaunhiO0C35rpCphxF4JFG43UVZ1pO7IENpmm+CXZGPSnLoAhC5lzFfasn/W2s0g77+Tq8IFcLAuVE58vnDpE62Nc4Yw55d+Pnj//pm13r33OGVAc81Vh3wK3cX88O7gas8yfk2WTLT38NSsnkovFFRTYkn7spa+9r13N51DXfuHD829WCkMHk6DBRR+Akn0rImFV+81TcMfXPm1ZtLf1Y8M4pLFjh+aAeL3fh1E6rS7stLUvuktK2IsMrF2gnO4nKcFucqwUhfWbxWYKiTrwSpzZCyCD5uQzrvqT4eiJqf3Lc0hndSIfAWJVllhbM49PbDvnDrFphvMoCpdELaSdx4apXtweXC4L8SUfXLtFdhae8OSgjhGA+mfDg1GCHnHdUg4HNgjfBGH8lTvoS3mok7zTXt9AdRwSff3yNUvydIWt+i1R3JLlcEORHCNevq73imZ1sLLpNqIeQisoQxc3qF5W06jAUoUwV2p4NSptwO7hs8D1eXjZfsh1O8MoG6uHAsuWGk52rBSHQApyUHZGYoCYIadJmkO7Xjz47LG1LMcxVTG2xDqWunEXup5iTbEmCQJgnEjUi4epFUbRn41wtCImJ8idzX79+VekmiEibXjo/dagqWzBlEZZ/mbThs+qsu3/9t2KuEVYQps+U26qogGkJV88HtPGSgasFAQiCkJigJghp0sgLQrBuMLXhs2D1lEVDqac6WxSllET5tCyqKJ4F4TYs7hYE0R1gEndd8ZUhIk3qrztB5yGhCqo/RKt2RqSRvy0jVIU4giaEVu12Q5o8eQdeLeWVgTIHIEKREE87kUhUhmrcNWP7cqjCZePcy2CFiIi00kUnXJX/IiEqNF2GbKJoz8a5WhAorwyq76LxhBOOJ75ZICg33NWLJ4JSrqjQq+eDt6gnXcbsoiqFcfHKgiBfl7ABLot0tSAkGsc9yQa1928gHXlO+UQp2360oyz7pZQrso0juCAT5beKy0BY9ZlwRW1SMF2mnFZN8VyaqwUh4Zr8zZJOcbY6/rL8ycaUJdWUO/LIX8HfQZncntj931OaRrKlnKGhOkKQbpjxbMETvdweXC0I6NFYNqTPlEvWVGh3lbAuPkue4Gyl7To5Ds4d2SRsn85IXEnYZnBw9mOMf432xEa3b3YDaTu3Mfd45tAvdqtyTD6XC4K8oqsuS70Yu0e607PmlXfrJl3oP4aHfptGzUK2P7hxCjmPbAaqI5L2H+yTLdrPrkB+2kOg05iTfmW4LcLdgkCYZMucq4RS316iCALBrRu1UXiM/PkT26jZpO0vnT1gnE79ubQ91ZByWvalM2ou6NDHg2y4fC44q0tl6w+VnbsF4bz8CAH9CKqEzuPOGmcGyi2DxRuxeiX5T2vUdu1c+y5cj5dfo08pf8fqnhRzsi3F6cmF0/L+DEQNofS5qr8MUf3hGOdqQaDuKpzwptputht7+eW+bLzSvEbQ7ocOow7Djm/f1l7+3h9HwKsj5V+N7DQgZ+H7pLNdPKV2OC5lLkfVX0Z0dIwjfmuOaKT0HeJjiD8MSsii+NpwNunUJ7mVb6qnCge6rpb9fgKdT/PDmz+Bhm8tClStUvrMvveSdmteOKnmho4iCFfiaPeSLwhjQaTck8I3Y4j/drUgIEuKq+0sudVeG84QDorNTTiA1u490bzP9/D7Fy1JayREde36vj+8+Grw/SnmLfmkqHrTOBQ9lUA5gOXSOTWPWirtDGVe1wtC3PEt0jyzF7pL2lZkiN5+ZPfX42q8OUOfEBWjNe6VYdugTcOacGLnCnK5eFT7xnnPQZOe9LzkyowMeUvLv0adORRtp4qbeSZ2kXd5h5kun1XzqKXU2BBmDntBiImJkRuDm0CjrN7LUfhek1Lko88c/FnaOLJyI2lbFUPcbl2nWX/4fUlzwKH/pTP7TIuLO/YHHIiZAL/NfxGeadwbOn581NRWZ8LcoU8CZS2I6sKonMS+DvbciU6WKmWl/hY9ldZL5KUIAt6QE7sUUvoRnNqzBvKUkPMmhCc9Te5WDNp/eEDiStRN8NwDAPx3Y/g/4Y28SWc7Jl5PSDrbEb+UpFaIrNKYVPXpfetJ9r7GuYo85Btl+vfVi+5ff5B88e4XBOKa+xtPjuWmN0eghKbvfAPR0YMCmd1MLxbV0fh/L2l7nYadxuAqP/sr/XS1ZWrPMpC94L+ki8P1Bx1Hy39SFhWcq+gDomhhXNzR/wnj3RgZ9q8MqtA7jztDOg0oR+Q9qlXCse3ypzrj8fFTepRSrtPJBZR4uDup+Ue3qi2MQt7pMuaQrjPumJogqL72SjdUg6HrBQEZnSeMEnITjnM34398x1KzJGF88QfeEMZ7IfKTAQ9CTqIIq37+zF1M/nUB+yDuaHD2bYRj/3pCEM7+HSPNHucRpveuIm0vMsSvDZSj4XIXfQhmDwydg1RRm1MrrsRD3UhVH9v2JcleZJyryIOiaNO4tsPkT5MyLcQhCY4QBNUh1+n9tAmovKXkP3+Z9fPhzTPNkoTxZR7vJ4x3c+TiSe0hc85iJpcoXsdzdOsCE3u5aDxPIucdUXLGhlUodo9KNyYEho4QBFUOuGKRchZCPg2C0PTtVaT98+ioY+X8YaqX6pj8eDJ30XvaCtt7Qwr8vzbjmpJ2I9SWK1e8/yVhnWaRlMNnzcpwUrwnBAE75BTh+HXcCj317bLK/Xh48yxSGTjB+NnIZ0l5nGpc7onBpk33l4Ibpns3vG+aRzahYMUXZU2T7E7v/4Fk72usOrr1LS/Yf3tGEGKJrw0FK9KeJKKOwskvquPT0v9+D2b0uVtUnGviVi0YCZSdhnjhJ3atghvrKOxjmN7rTqBsecYDY1T8LdhvaerldIwgqCpt64EbjS3Bl6VJF7rzZWlbK8PdPwyxShamVaw1CoLliFVYYQgjF09sJ71wK2WzNq5QHx0UqPAC6UpP7/sPyd4Nxo4RBB2wYwmbj7C+ReNaKFfb4r0NxuvK96Ry0hquwSs9O4mUxwnGn33wPBS9tx25qQd+nQx9514g5/PNkL9sbd8oy79P7l5tme7GRE8Jwokdy0h9GFmZtpzWrPAlM/pIO09JLgOHtmu+mmpWpOPiUQxKP9ab3G700FSv03RyPt8MC0Y3hjTp5A+yuXYpFnBUqRJUR7UqddvN6ylBaNF3gzHzT3C8ahwk+unwmnbZ3sw39ZursOeHoeRychi7L9csnQzlI82m2chFpkqGReNa2hID3Dm6beWbWtp8x92tSOUc2/YFyd4txo4SBB2Ke+SPeaS+K3pfe5K9mXHTd1bDyV3fmCWbxueIrArTPv0KJncvbmoTzgnL5w2EYtU622ri3h8/AKqTG1FFn75f29jERTsUlrraVFSvE+McJQg6APcZRhMEHLrjcFdHeKbJe8bWY7pjUDynoGqDhYBbhJ0ScAHQd8tmQv4ytWw1+dTeddC4O20JuFlFRaq2NksSxscd+x06fHREmCYbqePhJVuXTjvPCQL6BqAuf9U1SsCO27aqi20HqOVqDDNEQX0Vpc4byKysR5tMAorD1JTloGjWbqjHJyTulaB61D78vzlml+X6eMcJgg7l/Zv42pAhSz5YOLaZlpsBh8DbV9N29yVXjAeFNHt3jZZ2BLuQPT+OtFUFfvvf+rWe1zRsQNGk7eXyAScxW/Tx3ufGZEKOEwT5rjW3xMUmZ4/8Zm4gSClStY021+mt+v8CO9fSZtxjD/wIT7/0uqBl4RnVdsjvsOUr0SdG8R4FvApcJ7Ll6w7QaexpLRc1b2RdoPhNxEoPb5qhXLeOh5ZyI2wW4ElBQFYHfhnrj0x0r/4Th2sDur/b1z+PzZhmvb6FvT99IJUbN2fVrPeWlG04GbUZ/D/4Y2lbn1ck8y8mf654TevKwBIP0JhdM07wDpX/yHDqp5RtcaQg6FDgtkO3Quz+Dbf3i+heTRGHC1tm9ZPfKReo0xt2WWD4L5xoaXZqz1qoVd/eK4ZlwSFKxK3gW5d1COh8dtvKN7SeF7l0RjfDCUp20lUeNBZAeT04UhB0ddq+X0aTi9K9Tble55nw1zrx1mcUg9qNUse9GhmMRQYU3y1L2wknU+OvnIPNCxtBy37yzmktqkpKQj+VkZUaBjK7Lf1y3N/QqOtiUh6RsY6HlajcUMU5VhB0gG//wX448ddKEusMWQsAPn10hqZvrzSeoh1v+8Fgu9wgBsmcXhm+3ZgfeNVYsXnpJjqcwNu8qLH206DKVh8ge17Ozbbs/5n+cNB5D4RLWY4VBF0A90ePIxcVWbkhzOp/PzmfVQZcJotu0nEl5fEdX0OdpuJRg1UZ4Z6GZ0Rs+eoVwOPkzx3dDK+2qA+dRsuvHJW5viWTO5E/d+LhuM17r5Mp3tJGx0PKsoIQJIremkNQrb4qoqKiRFOBpAq+mtkDClWqT8qTcPU8bFpg3NBJnos5hAMBPAquUl3rORlRO/FrCE6AqgY3CILnRwh4EzzXeiTpyDfMg18dKtbmYabqj0hX/h4vZQJcuEUNeDoVi8Etao4XBF2n6u5eT/dbkDVvOVg2V9+nSOrNzPa3CNRsOZp08hPmvB5/BdYtlD9Dwwu8HS8Iuk7VxYNRcf08NRQoVxfmj1L3rkStl+1vEcBJXtwERg37o8fCyCXyTnPMytf1UDIrP5TxjhcEhDWiTkx6HdBmjO4N8cbcADWUeuQdmDOkOjUb22sgsGh8K8BJXmrA8y1xHYiOoOuhpKMtqmW4QhCq94d4VRCYf+FP8bBnPd1vAeYt/9T72r886LgmN5eBu1CLRXWydYk71uhZ3xHdI8ZVxyG6QhDwjtA1w4ubh3ATkZ1w5zNjYdo7Fexk5TxEArMHPWLL6QpWs9twVvPqiN3EGsXmEQ0gQZzizFjXCIJO/AsndyOdqZCybvSFOK1XRZ3N4bJ8CKAYVKg5yhYXdFLTuJv66U9Yua6HkK0LCVImVwmCrg5Cl2dbl3W6bVWdLP+06bNA5WenKB8HJ1uf1+w+Hf60bTHAlZHopIaDOQFXCYL5ZdJT2n94ALZ/05We0ciBzjyrPD/dMc5MbF1kKmRaOKYplLU44MWqSbhketsKfdvHdT18rNqcGmmuEwSdHYXLie2sT0juyHI1hsKi8TT3XalxEzihziWTO0LxB+w7XN2xuoeyW7RkTm6bSEzZ/64TBLw4naKAfv1UXGoVMzz2jGpP24brhB9oKNuIXpupfhFTtm/fzx9DqwHR2prstolE1wuCtp7/p6AX240Fu6f4HN48G7pOjtPdJG+VZ3ySwqKvAAAE7klEQVTotxtw12iDN2iOda3q0vmwsaontdJcOUJAmLo7rlaDHsbnSNqe/SNbF8KLr9J3U6bWzRCu9dbrPAvwKU8NeJS7zl2jaSIgltoGp9nbl16HXKmO3ZApL3X14tGQq+iDAa8etzDXbc7r5AOCIhjMG1EHZB3UnD/xJzxRpxWh9MCmuh8ygWsMvYVrRwjBQvn0y2/CmYP/tSweTypmMbBEZCuxSc/lUs5pL8buYTGwRdj4QmYzn2OyBUPVURRO7/9ByODU3u+gThPeASmEoyESndPuXPOuaUkXY/fCgK5NTdPtJATjHrLTjlDkcb0gIMRgdGit+t0MUVh/Wx+hSNRu+E4o+s3TdeDycpEb+7N//wqP12wI67a6ajVxSPvaE4IQPFHoDif33Dg4BV8jUCQ4hIYAjhRSrhE5+ucSeOoFexudrFocjIeJVX2pneb6ScWUgHVPMCaXPX/Uy1o89qb2zeDE+j99v5bhbj2Htq3MKRl4TQzw2j0lCHjBwRIFJ/6YuM3mBLwoBkjDM68MyV3v1Y42v/U5xZdAdJ2YtL5xXvnbc4KAHcui4JXb2951RvSH6/ZyOj+X514ZUnYZvz44/wbWfQVef1h4WhDwZmJR0P2Tcm55XhcD7DnPCwKLgnN/wDpbzmJwg6Yn5xB8byQvTyL5svDi3ywGt3qdRwgpfgH8+uA9OWAxuL3PWRB8fgMsCt4RBRYD/77mVwYfJnyT+N8kbotBvwbcz+Je5RGCmAt/fTDh4vRo9IfoZhdoqv3DgmBBkF8fLOA4MIlHBYE7jQUhACMWhQCAHJLMYiDXUSwIEpwSF0DaaiOjtJwfKVEdm2gmwGIgD5QFQZ4VzysQWIWLKYsBrSdYEGi8WBSIvFLLnIXAHnkWBBvceF7BBrQQZmExsA+bBcE+Ox4tKLALVlYWAzWyLAhq/FgUFPnpys5CoIckC4IejiwMmjhSi5nXPDZT2Td2XaHmY3sxARYEMRdbsYn9IU215VHsA9wWPXomHhXQmQXKwYIQiJCNdJ50tAGNkIWFgACLaMqCQARGMWdhoNCSs2UxkONk14oFwS45Qj4WBgIsgSk6sPGy41MBkqBFsSAEDa1/wSwM/kysYng0YEUnOGksCMHhalkqC4MlHnaTb40nqKksCEHFa114YiJEVKsW5dkzAHzp8IjAl0jo/2ZBCD1zYY1eHTWwCAhvh1SLZEFINfTmFbtdHFgEzPs+tVNYEFK7BwLU7xZx4C8FATo6TJJZEMKkIyjNcIJI8CiA0qPhY8uCED59Ybslqe3RiX/8trsu7DKyIIRdl+hvkOqIgn/w+vuES2QCTIAJMAEmwASYABNgAkyACTABJsAEmAATYAJMgAkwASbABJgAE2ACTIAJMAEmwASYABNgAkyACTABJsAEmAATYAJMgAkwASbABJgAE2ACTIAJMAEmwASYABNgAkyACTABJsAEmAATYAJMgAkwASbABJgAE2ACTIAJMAEmwASYABNgAkyACTABJsAEmAATYAJMgAkwASbABJgAE2ACTIAJMAEmwASYABNgAkyACTABJsAEmAATYAJMgAkwASbABJgAE2ACTIAJMAEmwASYABNgAkyACTABJsAEmAATYAJMgAkwASbABJgAE2ACTIAJMAEmwASYABNgAkyACTABJsAEmAATYAJMgAkwASaQROD/NK6AsPM+e34AAAAASUVORK5CYII=;" vertex="1" parent="1">
          <mxGeometry x="-600" y="-770.0000000000001" width="60" height="60" as="geometry" />
        </mxCell>
      </root>
    </mxGraphModel>
  </diagram>
</mxfile>
